HIERARCHY
ROOT hip
{
  OFFSET 0 -7 0
  CHANNELS 6 Xposition Yposition Zposition Zrotation Xrotation Yrotation
  JOINT abdomen
  {
    OFFSET 0 -1.186 -1.50178
    CHANNELS 6 Xposition Yposition Zposition Zrotation Xrotation Yrotation
    JOINT abdomen2
    {
      OFFSET 0 9.964 0.21338
      CHANNELS 6 Xposition Yposition Zposition Zrotation Xrotation Yrotation
      JOINT chest
      {
        OFFSET 0 13.134 -3.25729
        CHANNELS 6 Xposition Yposition Zposition Zrotation Xrotation Yrotation
        JOINT neck
        {
          OFFSET 0 21.686 -1.69049
          CHANNELS 6 Xposition Yposition Zposition Zrotation Xrotation Yrotation
          JOINT head
          {
            OFFSET 0 11.838 -0.12368
            CHANNELS 6 Xposition Yposition Zposition Zrotation Xrotation Yrotation
            End Site
            {
              OFFSET 0 6.717 2.38717
            }
          }
        }
        JOINT lCollar
        {
          OFFSET 1.70688 20.075 5.0056
          CHANNELS 6 Xposition Yposition Zposition Zrotation Xrotation Yrotation
          JOINT lShldr
          {
            OFFSET 13.6458 -0.047012 -4.84902
            CHANNELS 6 Xposition Yposition Zposition Zrotation Xrotation Yrotation
            JOINT lForeArm
            {
              OFFSET 28.3255 -0.975903 2.28883
              CHANNELS 6 Xposition Yposition Zposition Zrotation Xrotation Yrotation
              JOINT lHand
              {
                OFFSET 22.1583 -0.530035 10.8316
                CHANNELS 6 Xposition Yposition Zposition Zrotation Xrotation Yrotation
                JOINT lThumb1
                {
                  OFFSET 0.785995 0.111999 2.58168
                  CHANNELS 6 Xposition Yposition Zposition Zrotation Xrotation Yrotation
                  JOINT lThumb2
                  {
                    OFFSET 0.3601 -0.878005 4.2331
                    CHANNELS 6 Xposition Yposition Zposition Zrotation Xrotation Yrotation
                    End Site
                    {
                      OFFSET 1.81271 -1.21601 2.2227
                    }
                  }
                }
                JOINT lCarpal1
                {
                  OFFSET 0.9571 1.114 1.76948
                  CHANNELS 6 Xposition Yposition Zposition Zrotation Xrotation Yrotation
                  JOINT lIndex1
                  {
                    OFFSET 4.1246 0.487 4.1451
                    CHANNELS 6 Xposition Yposition Zposition Zrotation Xrotation Yrotation
                    JOINT lIndex2
                    {
                      OFFSET 3.40521 -1.45401 2.7682
                      CHANNELS 6 Xposition Yposition Zposition Zrotation Xrotation Yrotation
                      End Site
                      {
                        OFFSET 1.4531 -1.795 1.2713
                      }
                    }
                  }
                  JOINT lMid1
                  {
                    OFFSET 5.6954 0.209991 2.1184
                    CHANNELS 6 Xposition Yposition Zposition Zrotation Xrotation Yrotation
                    JOINT lMid2
                    {
                      OFFSET 3.9766 -1.53999 2.3863
                      CHANNELS 6 Xposition Yposition Zposition Zrotation Xrotation Yrotation
                      End Site
                      {
                        OFFSET 1.4042 -1.926 1.125
                      }
                    }
                  }
                }
                JOINT lCarpal2
                {
                  OFFSET 2.09559 0.65999 -0.38939
                  CHANNELS 6 Xposition Yposition Zposition Zrotation Xrotation Yrotation
                  JOINT lRing1
                  {
                    OFFSET 5.0395 -0.089997 2.49707
                    CHANNELS 6 Xposition Yposition Zposition Zrotation Xrotation Yrotation
                    JOINT lRing2
                    {
                      OFFSET 3.7921 -1.552 1.4806
                      CHANNELS 6 Xposition Yposition Zposition Zrotation Xrotation Yrotation
                      End Site
                      {
                        OFFSET 1.4655 -1.808 0.9609
                      }
                    }
                  }
                  JOINT lPinky1
                  {
                    OFFSET 4.9141 -1.269 0.35915
                    CHANNELS 6 Xposition Yposition Zposition Zrotation Xrotation Yrotation
                    JOINT lPinky2
                    {
                      OFFSET 3.1477 -1.685 0.84623
                      CHANNELS 6 Xposition Yposition Zposition Zrotation Xrotation Yrotation
                      End Site
                      {
                        OFFSET 0.805505 -1.58499 0.79549
                      }
                    }
                  }
                }
              }
            }
          }
        }
        JOINT rCollar
        {
          OFFSET -1.70688 20.075 5.0056
          CHANNELS 6 Xposition Yposition Zposition Zrotation Xrotation Yrotation
          JOINT rShldr
          {
            OFFSET -13.6458 -0.047012 -4.84902
            CHANNELS 6 Xposition Yposition Zposition Zrotation Xrotation Yrotation
            JOINT rForeArm
            {
              OFFSET -28.3255 -0.975903 2.28883
              CHANNELS 6 Xposition Yposition Zposition Zrotation Xrotation Yrotation
              JOINT rHand
              {
                OFFSET -22.1583 -0.530036 10.8316
                CHANNELS 6 Xposition Yposition Zposition Zrotation Xrotation Yrotation
                JOINT rThumb1
                {
                  OFFSET -0.785995 0.111999 2.58168
                  CHANNELS 6 Xposition Yposition Zposition Zrotation Xrotation Yrotation
                  JOINT rThumb2
                  {
                    OFFSET -0.3601 -0.878005 4.2331
                    CHANNELS 6 Xposition Yposition Zposition Zrotation Xrotation Yrotation
                    End Site
                    {
                      OFFSET -1.81271 -1.21601 2.2227
                    }
                  }
                }
                JOINT rCarpal1
                {
                  OFFSET -0.9571 1.114 1.76948
                  CHANNELS 6 Xposition Yposition Zposition Zrotation Xrotation Yrotation
                  JOINT rIndex1
                  {
                    OFFSET -4.1246 0.487 4.1451
                    CHANNELS 6 Xposition Yposition Zposition Zrotation Xrotation Yrotation
                    JOINT rIndex2
                    {
                      OFFSET -3.40521 -1.45401 2.7682
                      CHANNELS 6 Xposition Yposition Zposition Zrotation Xrotation Yrotation
                      End Site
                      {
                        OFFSET -1.4531 -1.795 1.2713
                      }
                    }
                  }
                  JOINT rMid1
                  {
                    OFFSET -5.6954 0.209991 2.1184
                    CHANNELS 6 Xposition Yposition Zposition Zrotation Xrotation Yrotation
                    JOINT rMid2
                    {
                      OFFSET -3.9766 -1.53999 2.3863
                      CHANNELS 6 Xposition Yposition Zposition Zrotation Xrotation Yrotation
                      End Site
                      {
                        OFFSET -1.4042 -1.926 1.125
                      }
                    }
                  }
                }
                JOINT rCarpal2
                {
                  OFFSET -2.09559 0.65999 -0.38939
                  CHANNELS 6 Xposition Yposition Zposition Zrotation Xrotation Yrotation
                  JOINT rRing1
                  {
                    OFFSET -5.0395 -0.089997 2.49707
                    CHANNELS 6 Xposition Yposition Zposition Zrotation Xrotation Yrotation
                    JOINT rRing2
                    {
                      OFFSET -3.7921 -1.552 1.4806
                      CHANNELS 6 Xposition Yposition Zposition Zrotation Xrotation Yrotation
                      End Site
                      {
                        OFFSET -1.4655 -1.808 0.9609
                      }
                    }
                  }
                  JOINT rPinky1
                  {
                    OFFSET -4.9141 -1.269 0.35915
                    CHANNELS 6 Xposition Yposition Zposition Zrotation Xrotation Yrotation
                    JOINT rPinky2
                    {
                      OFFSET -3.1477 -1.685 0.84623
                      CHANNELS 6 Xposition Yposition Zposition Zrotation Xrotation Yrotation
                      End Site
                      {
                        OFFSET -0.805505 -1.58499 0.79549
                      }
                    }
                  }
                }
              }
            }
          }
        }
      }
    }
  }
  JOINT lThigh
  {
    OFFSET 8.367 -8.2066 0.59823
    CHANNELS 6 Xposition Yposition Zposition Zrotation Xrotation Yrotation
    JOINT lShin
    {
      OFFSET 2.19232 -43.463 -0.493181
      CHANNELS 6 Xposition Yposition Zposition Zrotation Xrotation Yrotation
      JOINT lFoot
      {
        OFFSET 0.733257 -45.8593 -2.64513
        CHANNELS 6 Xposition Yposition Zposition Zrotation Xrotation Yrotation
        End Site
        {
          OFFSET 2.6618 -4.26993 12.3931
        }
      }
    }
  }
  JOINT rThigh
  {
    OFFSET -8.367 -8.2066 0.59823
    CHANNELS 6 Xposition Yposition Zposition Zrotation Xrotation Yrotation
    JOINT rShin
    {
      OFFSET -2.19233 -43.463 -0.493108
      CHANNELS 6 Xposition Yposition Zposition Zrotation Xrotation Yrotation
      JOINT rFoot
      {
        OFFSET -0.733256 -45.8593 -2.64514
        CHANNELS 6 Xposition Yposition Zposition Zrotation Xrotation Yrotation
        End Site
        {
          OFFSET -2.6618 -4.26993 12.3931
        }
      }
    }
  }
}
MOTION
Frames:	5
Frame Time:	0.0333333
-0.120039 103.55 -1.03577 1.03442 0.574503 -0.505118 -2.22045e-016 -1.186 -1.50178 -0.225167 -0.563947 -0.0479872 2.22045e-016 9.964 0.21338 -0.460095 -1.12461 -0.129432 5.55112e-017 13.134 -3.25729 -0.471783 -1.12025 -0.126238 1.11022e-016 21.686 -1.69049 0.965338 -10.1053 -0.427391 0 11.838 -0.12368 -2.83017 4.5628 1.70365 1.70688 20.075 5.0056 -1.87755 -0.253284 2.77907 13.6458 -0.047012 -4.84902 -5.28952 2.72658 0.0848139 28.3255 -0.975903 2.28883 2.23186 -0.116844 21.1502 22.1583 -0.530035 10.8316 -0.327572 -0.224066 -2.28461 0.785995 0.111999 2.58168 -1.49089e-016 0 -0 0.3601 -0.878005 4.2331 -1.05604e-015 1.49089e-016 -0 0.9571 1.114 1.76948 -1.49089e-016 0 -0 4.1246 0.487 4.1451 -1.05604e-015 1.49089e-016 -0 3.40521 -1.45401 2.7682 4.47266e-016 -4.96962e-016 -0 5.6954 0.209991 2.1184 -1.05604e-015 1.49089e-016 -0 3.9766 -1.53999 2.3863 4.47266e-016 -4.96962e-016 -0 2.09559 0.65999 -0.38939 -1.49089e-016 0 -0 5.0395 -0.089997 2.49707 -1.05604e-015 1.49089e-016 -0 3.7921 -1.552 1.4806 4.47266e-016 -4.96962e-016 -0 4.9141 -1.269 0.35915 -1.05604e-015 1.49089e-016 -0 3.1477 -1.685 0.84623 4.47266e-016 -4.96962e-016 -0 -1.70688 20.075 5.0056 4.16731 0.328595 1.31523 -13.6458 -0.047012 -4.84902 5.04821 4.70392 -4.87985 -28.3255 -0.975903 2.28883 -4.67943 4.28817 -19.4523 -22.1583 -0.530036 10.8316 -2.06168 -1.83194 1.15661 -0.785995 0.111999 2.58168 3.97569e-016 0 -0 -0.3601 -0.878005 4.2331 -3.97569e-016 0 -0 -0.9571 1.114 1.76948 3.97569e-016 0 -0 -4.1246 0.487 4.1451 -3.97569e-016 0 -0 -3.40521 -1.45401 2.7682 0 0 -3.18055e-015 -5.6954 0.209991 2.1184 -3.97569e-016 0 -0 -3.9766 -1.53999 2.3863 0 0 -3.18055e-015 -2.09559 0.65999 -0.38939 3.97569e-016 0 -0 -5.0395 -0.089997 2.49707 -3.97569e-016 0 -0 -3.7921 -1.552 1.4806 0 0 -3.18055e-015 -4.9141 -1.269 0.35915 -3.97569e-016 0 -0 -3.1477 -1.685 0.84623 0 0 -3.18055e-015 8.367 -8.2066 0.59823 -0.203741 -6.10235 -0.661639 2.19232 -43.463 -0.493181 0.530864 5.07862 -6.0719 0.733257 -45.8593 -2.64513 -3.19968 0.243691 0.00233886 -8.367 -8.2066 0.59823 -4.13139 -4.53376 -1.15387 -2.19233 -43.463 -0.493108 -0.00842247 2.77514 1.40189 -0.733256 -45.8593 -2.64514 4.25088 0.651025 -0.162218 
-0.127869 103.529 -1.04229 1.06684 0.626721 -0.456903 -2.22045e-016 -1.186 -1.50178 -0.22518 -0.581184 -0.0478634 2.22045e-016 9.964 0.21338 -0.45984 -1.15897 -0.113015 -5.55112e-017 13.134 -3.25729 -0.471526 -1.15458 -0.109763 -1.11022e-016 21.686 -1.69049 0.899902 -10.2375 -0.47309 0 11.838 -0.12368 -2.73791 4.59452 1.57203 1.70688 20.075 5.0056 -1.83756 -0.248424 2.73589 13.6458 -0.047012 -4.84902 -5.13855 3.03234 0.0159154 28.3255 -0.975903 2.28883 2.19647 -0.476519 21.151 22.1583 -0.530035 10.8316 -0.517306 -0.160337 -2.42316 0.785995 0.111999 2.58168 2.13694e-015 -1.98785e-016 3.18055e-015 0.3601 -0.878005 4.2331 1.14301e-015 -4.96962e-017 3.18055e-015 0.9571 1.114 1.76948 2.13694e-015 -1.98785e-016 3.18055e-015 4.1246 0.487 4.1451 1.14301e-015 -4.96962e-017 3.18055e-015 3.40521 -1.45401 2.7682 -4.72114e-016 -1.49089e-016 -0 5.6954 0.209991 2.1184 1.14301e-015 -4.96962e-017 3.18055e-015 3.9766 -1.53999 2.3863 -4.72114e-016 -1.49089e-016 -0 2.09559 0.65999 -0.38939 2.13694e-015 -1.98785e-016 3.18055e-015 5.0395 -0.089997 2.49707 1.14301e-015 -4.96962e-017 3.18055e-015 3.7921 -1.552 1.4806 -4.72114e-016 -1.49089e-016 -0 4.9141 -1.269 0.35915 1.14301e-015 -4.96962e-017 3.18055e-015 3.1477 -1.685 0.84623 -4.72114e-016 -1.49089e-016 -0 -1.70688 20.075 5.0056 4.10581 0.328592 1.34046 -13.6458 -0.047012 -4.84902 5.06814 4.89459 -4.94841 -28.3255 -0.975903 2.28883 -4.58481 3.43077 -19.3145 -22.1583 -0.530036 10.8316 -1.8323 -1.60564 0.760516 -0.785995 0.111999 2.58168 3.97569e-016 7.95139e-016 -3.18055e-015 -0.3601 -0.878005 4.2331 7.95139e-016 0 -6.36111e-015 -0.9571 1.114 1.76948 3.97569e-016 7.95139e-016 -3.18055e-015 -4.1246 0.487 4.1451 7.95139e-016 0 -6.36111e-015 -3.40521 -1.45401 2.7682 3.97569e-016 0 -6.36111e-015 -5.6954 0.209991 2.1184 7.95139e-016 0 -6.36111e-015 -3.9766 -1.53999 2.3863 3.97569e-016 0 -6.36111e-015 -2.09559 0.65999 -0.38939 3.97569e-016 7.95139e-016 -3.18055e-015 -5.0395 -0.089997 2.49707 7.95139e-016 0 -6.36111e-015 -3.7921 -1.552 1.4806 3.97569e-016 0 -6.36111e-015 -4.9141 -1.269 0.35915 7.95139e-016 0 -6.36111e-015 -3.1477 -1.685 0.84623 3.97569e-016 0 -6.36111e-015 8.367 -8.2066 0.59823 -0.255473 -6.29653 -0.56358 2.19232 -43.463 -0.493181 0.60805 5.31157 -6.2509 0.733257 -45.8593 -2.64513 -3.4042 0.158446 0.00233885 -8.367 -8.2066 0.59823 -4.13104 -4.74786 -1.37082 -2.19233 -43.463 -0.493108 -0.178233 3.10938 1.5836 -0.733256 -45.8593 -2.64514 4.35084 0.43801 -0.162212 
-0.142955 103.531 -1.06123 1.0733 0.593904 -0.339132 2.22045e-016 -1.186 -1.50178 -0.226633 -0.57226 -0.0581411 2.22045e-016 9.964 0.21338 -0.462726 -1.14108 -0.133588 5.55112e-017 13.134 -3.25729 -0.474288 -1.13671 -0.130371 0 21.686 -1.69049 0.941445 -10.5051 -0.528278 4.44089e-016 11.838 -0.12368 -2.68782 4.66225 1.49755 1.70688 20.075 5.0056 -1.79333 -0.237647 2.64579 13.6458 -0.047012 -4.84902 -5.06252 3.56146 0.261854 28.3255 -0.975903 2.28883 2.26393 -0.584937 21.1513 22.1583 -0.530035 10.8316 -0.332038 -0.237172 -2.32718 0.785995 0.111999 2.58168 -1.11816e-015 1.86361e-016 -0 0.3601 -0.878005 4.2331 -1.75179e-015 1.11816e-016 -0 0.9571 1.114 1.76948 -1.11816e-015 1.86361e-016 -0 4.1246 0.487 4.1451 -1.75179e-015 1.11816e-016 -0 3.40521 -1.45401 2.7682 -8.82107e-016 -2.23633e-016 -0 5.6954 0.209991 2.1184 -1.75179e-015 1.11816e-016 -0 3.9766 -1.53999 2.3863 -8.82107e-016 -2.23633e-016 -0 2.09559 0.65999 -0.38939 -1.11816e-015 1.86361e-016 -0 5.0395 -0.089997 2.49707 -1.75179e-015 1.11816e-016 -0 3.7921 -1.552 1.4806 -8.82107e-016 -2.23633e-016 -0 4.9141 -1.269 0.35915 -1.75179e-015 1.11816e-016 -0 3.1477 -1.685 0.84623 -8.82107e-016 -2.23633e-016 -0 -1.70688 20.075 5.0056 4.02864 0.323474 1.30537 -13.6458 -0.047012 -4.84902 5.19035 4.73856 -4.84093 -28.3255 -0.975903 2.28883 -4.71024 3.63883 -19.4832 -22.1583 -0.530036 10.8316 -2.00066 -1.76088 1.27166 -0.785995 0.111999 2.58168 -3.97569e-016 7.95139e-016 3.18055e-015 -0.3601 -0.878005 4.2331 -0 -7.95139e-016 -0 -0.9571 1.114 1.76948 -3.97569e-016 7.95139e-016 3.18055e-015 -4.1246 0.487 4.1451 -0 -7.95139e-016 -0 -3.40521 -1.45401 2.7682 -7.95139e-016 1.59028e-015 3.18055e-015 -5.6954 0.209991 2.1184 -0 -7.95139e-016 -0 -3.9766 -1.53999 2.3863 -7.95139e-016 1.59028e-015 3.18055e-015 -2.09559 0.65999 -0.38939 -3.97569e-016 7.95139e-016 3.18055e-015 -5.0395 -0.089997 2.49707 -0 -7.95139e-016 -0 -3.7921 -1.552 1.4806 -7.95139e-016 1.59028e-015 3.18055e-015 -4.9141 -1.269 0.35915 -0 -7.95139e-016 -0 -3.1477 -1.685 0.84623 -7.95139e-016 1.59028e-015 3.18055e-015 8.367 -8.2066 0.59823 -0.222338 -6.30325 -0.59534 2.19232 -43.463 -0.493181 0.548134 5.3545 -6.36183 0.733257 -45.8593 -2.64513 -3.3563 0.161267 0.00233885 -8.367 -8.2066 0.59823 -4.20102 -4.65803 -0.99813 -2.19233 -43.463 -0.493108 -0.0901054 3.10823 1.15194 -0.733256 -45.8593 -2.64514 4.24835 0.459976 -0.162213 
-0.175898 103.539 -1.03729 1.02938 0.509652 -0.145052 2.22045e-016 -1.186 -1.50178 -0.240692 -0.53831 -0.0930733 0 9.964 0.21338 -0.490707 -1.07289 -0.2035 -5.55112e-017 13.134 -3.25729 -0.501746 -1.06838 -0.200337 0 21.686 -1.69049 1.12925 -10.8572 -0.575768 8.88178e-016 11.838 -0.12368 -2.62697 4.52987 1.47182 1.70688 20.075 5.0056 -1.74933 -0.207889 2.4391 13.6458 -0.047012 -4.84902 -5.0468 4.59927 0.929739 28.3255 -0.975903 2.28883 2.81003 -1.1011 21.1488 22.1583 -0.530035 10.8316 -0.409793 -0.228881 -2.50058 0.785995 0.111999 2.58168 -8.94531e-016 3.97569e-016 -3.18055e-015 0.3601 -0.878005 4.2331 -9.93923e-017 -2.98177e-016 -3.18055e-015 0.9571 1.114 1.76948 -8.94531e-016 3.97569e-016 -3.18055e-015 4.1246 0.487 4.1451 -9.93923e-017 -2.98177e-016 -3.18055e-015 3.40521 -1.45401 2.7682 -4.96962e-017 0 -0 5.6954 0.209991 2.1184 -9.93923e-017 -2.98177e-016 -3.18055e-015 3.9766 -1.53999 2.3863 -4.96962e-017 0 -0 2.09559 0.65999 -0.38939 -8.94531e-016 3.97569e-016 -3.18055e-015 5.0395 -0.089997 2.49707 -9.93923e-017 -2.98177e-016 -3.18055e-015 3.7921 -1.552 1.4806 -4.96962e-017 0 -0 4.9141 -1.269 0.35915 -9.93923e-017 -2.98177e-016 -3.18055e-015 3.1477 -1.685 0.84623 -4.96962e-017 0 -0 -1.70688 20.075 5.0056 4.07124 0.295856 1.15721 -13.6458 -0.047012 -4.84902 5.27307 4.80566 -4.63689 -28.3255 -0.975903 2.28883 -4.72265 2.92144 -19.5006 -22.1583 -0.530036 10.8316 -1.82743 -1.61074 1.40522 -0.785995 0.111999 2.58168 3.97569e-016 0 -0 -0.3601 -0.878005 4.2331 3.97569e-016 -7.95139e-016 -0 -0.9571 1.114 1.76948 3.97569e-016 0 -0 -4.1246 0.487 4.1451 3.97569e-016 -7.95139e-016 -0 -3.40521 -1.45401 2.7682 -3.97569e-016 7.95139e-016 9.54166e-015 -5.6954 0.209991 2.1184 3.97569e-016 -7.95139e-016 -0 -3.9766 -1.53999 2.3863 -3.97569e-016 7.95139e-016 9.54166e-015 -2.09559 0.65999 -0.38939 3.97569e-016 0 -0 -5.0395 -0.089997 2.49707 3.97569e-016 -7.95139e-016 -0 -3.7921 -1.552 1.4806 -3.97569e-016 7.95139e-016 9.54166e-015 -4.9141 -1.269 0.35915 3.97569e-016 -7.95139e-016 -0 -3.1477 -1.685 0.84623 -3.97569e-016 7.95139e-016 9.54166e-015 8.367 -8.2066 0.59823 -0.119044 -6.12384 -0.704876 2.19232 -43.463 -0.493181 0.457535 5.17536 -6.3879 0.733257 -45.8593 -2.64513 -3.20072 0.175562 0.00233885 -8.367 -8.2066 0.59823 -4.12148 -4.46986 -1.14902 -2.19233 -43.463 -0.493108 -0.191241 3.04262 1.09229 -0.733256 -45.8593 -2.64514 4.31691 0.373484 -0.162211 
-0.18204 103.545 -1.03241 1.0719 0.591349 -0.176974 -2.22045e-016 -1.186 -1.50178 -0.301466 -0.525525 -0.0859025 0 9.964 0.21338 -0.611959 -1.04632 -0.189478 2.08167e-017 13.134 -3.25729 -0.622698 -1.04058 -0.186085 0 21.686 -1.69049 1.48745 -11.3796 -0.705031 0 11.838 -0.12368 -2.59338 4.29825 1.44018 1.70688 20.075 5.0056 -1.99425 -0.165907 2.31783 13.6458 -0.047012 -4.84902 -5.12219 6.94165 1.89714 28.3255 -0.975903 2.28883 4.06209 -3.77747 20.8987 22.1583 -0.530035 10.8316 -0.18743 -0.273136 -2.09381 0.785995 0.111999 2.58168 -4.96962e-016 -2.98177e-016 3.18055e-015 0.3601 -0.878005 4.2331 -5.46658e-016 -9.93923e-017 3.18055e-015 0.9571 1.114 1.76948 -4.96962e-016 -2.98177e-016 3.18055e-015 4.1246 0.487 4.1451 -5.46658e-016 -9.93923e-017 3.18055e-015 3.40521 -1.45401 2.7682 -5.46658e-016 -1.98785e-016 3.18055e-015 5.6954 0.209991 2.1184 -5.46658e-016 -9.93923e-017 3.18055e-015 3.9766 -1.53999 2.3863 -5.46658e-016 -1.98785e-016 3.18055e-015 2.09559 0.65999 -0.38939 -4.96962e-016 -2.98177e-016 3.18055e-015 5.0395 -0.089997 2.49707 -5.46658e-016 -9.93923e-017 3.18055e-015 3.7921 -1.552 1.4806 -5.46658e-016 -1.98785e-016 3.18055e-015 4.9141 -1.269 0.35915 -5.46658e-016 -9.93923e-017 3.18055e-015 3.1477 -1.685 0.84623 -5.46658e-016 -1.98785e-016 3.18055e-015 -1.70688 20.075 5.0056 4.40132 0.26995 0.994645 -13.6458 -0.047012 -4.84902 5.18316 4.95148 -4.4105 -28.3255 -0.975903 2.28883 -4.67231 2.31228 -19.5687 -22.1583 -0.530036 10.8316 -1.86378 -1.63247 1.47993 -0.785995 0.111999 2.58168 -4.41391e-032 -7.95139e-016 -3.18055e-015 -0.3601 -0.878005 4.2331 -8.82781e-032 -1.59028e-015 -3.18055e-015 -0.9571 1.114 1.76948 -4.41391e-032 -7.95139e-016 -3.18055e-015 -4.1246 0.487 4.1451 -8.82781e-032 -1.59028e-015 -3.18055e-015 -3.40521 -1.45401 2.7682 3.97569e-016 0 -0 -5.6954 0.209991 2.1184 -8.82781e-032 -1.59028e-015 -3.18055e-015 -3.9766 -1.53999 2.3863 3.97569e-016 0 -0 -2.09559 0.65999 -0.38939 -4.41391e-032 -7.95139e-016 -3.18055e-015 -5.0395 -0.089997 2.49707 -8.82781e-032 -1.59028e-015 -3.18055e-015 -3.7921 -1.552 1.4806 3.97569e-016 0 -0 -4.9141 -1.269 0.35915 -8.82781e-032 -1.59028e-015 -3.18055e-015 -3.1477 -1.685 0.84623 3.97569e-016 0 -0 8.367 -8.2066 0.59823 -0.183702 -6.20422 -0.445103 2.19232 -43.463 -0.493181 0.553894 5.17352 -6.67822 0.733257 -45.8593 -2.64513 -3.16353 0.299851 0.00233888 -8.367 -8.2066 0.59823 -4.15748 -4.65619 -1.33926 -2.19233 -43.463 -0.493108 -0.292105 3.2542 1.34131 -0.733256 -45.8593 -2.64514 4.32461 0.380454 -0.157729 
